<svg xmlns="http://www.w3.org/2000/svg" version="1.1" xmlns:xlink="http://www.w3.org/1999/xlink" width="200" height="200"><svg xmlns="http://www.w3.org/2000/svg" version="1.1" xmlns:xlink="http://www.w3.org/1999/xlink" viewBox="0 0 200 200"><rect width="200" height="200" fill="url('#gradient')"></rect><defs><linearGradient id="SvgjsLinearGradient1001" gradientTransform="rotate(45 0.5 0.5)"><stop offset="0%" stop-color="#f0f2ed"></stop><stop offset="100%" stop-color="#d98273"></stop></linearGradient></defs><g><g fill="#2c3d51" transform="matrix(6.864804469273743,0,0,6.864804469273743,4.098956931369926,150.80189458538035)" stroke="#0e5491" stroke-width="0.2"><path d="M0.86-10.57L3.95-10.57L4.05-9.33Q5.15-10.76 7.07-10.76L7.07-10.76Q8.72-10.76 9.54-9.78Q10.35-8.79 10.38-6.81L10.38-6.81L10.38 0L7.08 0L7.08-6.67Q7.08-7.47 6.76-7.85Q6.44-8.22 5.59-8.22L5.59-8.22Q4.62-8.22 4.15-7.46L4.15-7.46L4.15 0L0.86 0L0.86-10.57ZM11.79-5.36L11.79-5.36Q11.79-7.87 12.87-9.32Q13.96-10.76 15.90-10.76L15.90-10.76Q17.31-10.76 18.28-9.65L18.28-9.65L18.28-15L21.58-15L21.58 0L18.62 0L18.46-1.13Q17.44 0.20 15.88 0.20L15.88 0.20Q13.99 0.20 12.89-1.25Q11.79-2.70 11.79-5.36ZM15.09-5.76L15.08-5.16Q15.08-2.34 16.72-2.34L16.72-2.34Q17.81-2.34 18.28-3.26L18.28-3.26L18.28-7.29Q17.83-8.22 16.74-8.22L16.74-8.22Q15.21-8.22 15.09-5.76L15.09-5.76ZM26.92-10.57L26.92 0L23.62 0L23.62-10.57L26.92-10.57ZM23.43-13.29L23.43-13.29Q23.43-13.99 23.94-14.44Q24.44-14.89 25.25-14.89Q26.06-14.89 26.57-14.44Q27.08-13.99 27.08-13.29Q27.08-12.59 26.57-12.14Q26.06-11.69 25.25-11.69Q24.44-11.69 23.94-12.14Q23.43-12.59 23.43-13.29Z"></path></g></g></svg><style>@media (prefers-color-scheme: light) { :root { filter: none; } }
@media (prefers-color-scheme: dark) { :root { filter: none; } }
</style></svg>